# xmcd
#
# Track frame offsets:
#	150
#	17433
#	35278
#	52040
#	70060
#	81830
#	101235
#	114719
#	129868
#	148222
#	163844
#
# Disc length: 2804 seconds
#
# Revision: 0
# Processed by: cddbd v1.5.2PL0 Copyright (c) Steve Scherf et al.
# Submitted via: dBpowerAMP V4.0
#
DISCID=950af20b
DTITLE=The Urbane Cowboys - Only Truth Tonight
DYEAR=1900
DGENRE=
TTITLE0=here we go again
TTITLE1=satelite
TTITLE2=if only for now
TTITLE3=like a child
TTITLE4=saddle up
TTITLE5=30 days
TTITLE6=when it rains
TTITLE7=all we have
TTITLE8=wave
TTITLE9=falling down
TTITLE10=long way from home
EXTD=
EXTT0=
EXTT1=
EXTT2=
EXTT3=
EXTT4=
EXTT5=
EXTT6=
EXTT7=
EXTT8=
EXTT9=
EXTT10=
PLAYORDER=
